<svg id="svg" version="1.1" xmlns="http://www.w3.org/2000/svg" xmlns:xlink="http://www.w3.org/1999/xlink" width="400" height="409.5808383233533" viewBox="0, 0, 400,409.5808383233533"><g id="svgg"><path id="path0" d="M199.160 19.186 C 198.661 20.074,198.128 20.800,197.976 20.800 C 197.823 20.800,197.311 21.700,196.838 22.800 C 196.365 23.900,195.806 24.800,195.597 24.800 C 195.387 24.800,195.093 25.295,194.944 25.900 C 194.625 27.195,193.630 28.868,192.910 29.320 C 192.629 29.496,192.400 30.000,192.400 30.440 C 192.400 31.342,191.376 33.481,190.548 34.309 C 190.247 34.610,190.000 35.123,190.000 35.448 C 190.000 36.114,188.852 38.493,188.383 38.800 C 188.215 38.910,187.702 40.068,187.243 41.374 C 186.784 42.679,186.253 43.849,186.063 43.974 C 185.873 44.098,185.398 45.190,185.008 46.400 C 184.617 47.610,184.061 48.873,183.772 49.206 C 183.483 49.539,183.076 50.569,182.868 51.493 C 182.661 52.418,182.020 53.978,181.445 54.959 C 180.870 55.940,180.394 57.070,180.387 57.471 C 180.381 57.872,179.925 59.100,179.375 60.200 C 178.825 61.300,178.198 63.096,177.981 64.191 C 177.764 65.285,177.232 66.862,176.798 67.694 C 176.364 68.526,175.742 70.490,175.415 72.058 C 175.088 73.627,174.534 75.347,174.184 75.881 C 173.834 76.415,173.374 77.966,173.162 79.326 C 172.949 80.687,172.352 82.880,171.834 84.200 C 171.317 85.520,170.764 87.950,170.607 89.600 C 170.450 91.250,170.057 93.680,169.734 95.000 C 169.411 96.320,168.994 98.030,168.806 98.800 C 168.619 99.570,168.339 103.810,168.185 108.222 C 167.987 113.878,167.747 116.458,167.372 116.970 C 166.590 118.040,164.430 117.512,162.966 115.895 C 162.321 115.183,160.535 113.556,158.997 112.281 C 157.459 111.005,155.815 109.610,155.344 109.181 C 154.873 108.751,154.312 108.400,154.099 108.400 C 153.885 108.400,153.039 107.867,152.220 107.216 C 151.400 106.565,150.341 105.909,149.865 105.758 C 149.389 105.608,148.763 105.148,148.473 104.737 C 148.184 104.325,147.329 103.730,146.573 103.415 C 145.818 103.099,145.200 102.562,145.200 102.220 C 145.200 101.879,144.924 101.600,144.586 101.600 C 143.870 101.600,141.937 100.436,141.497 99.740 C 141.330 99.476,140.520 99.044,139.697 98.781 C 138.874 98.517,137.840 97.993,137.400 97.617 C 136.960 97.240,135.925 96.624,135.100 96.247 C 134.275 95.871,133.600 95.396,133.600 95.192 C 133.600 94.989,132.706 94.438,131.613 93.967 C 130.520 93.497,129.426 92.872,129.182 92.578 C 128.938 92.284,127.807 91.735,126.669 91.358 C 125.531 90.981,124.420 90.456,124.200 90.192 C 123.980 89.928,122.900 89.480,121.800 89.196 C 120.700 88.913,119.440 88.372,119.000 87.994 C 118.560 87.616,117.357 86.993,116.326 86.609 C 115.295 86.225,114.362 85.679,114.254 85.395 C 114.145 85.112,113.278 84.750,112.328 84.592 C 111.378 84.433,109.610 83.801,108.400 83.186 C 107.190 82.572,105.623 81.951,104.919 81.807 C 104.214 81.663,103.224 81.231,102.719 80.848 C 102.213 80.465,100.630 79.835,99.200 79.447 C 97.770 79.059,96.330 78.501,96.000 78.206 C 95.670 77.911,94.332 77.474,93.026 77.235 C 91.721 76.996,89.921 76.456,89.026 76.035 C 88.132 75.615,86.410 75.068,85.200 74.820 C 83.990 74.572,82.280 74.027,81.400 73.609 C 79.290 72.605,73.196 71.759,72.792 72.413 C 72.451 72.965,72.940 75.405,73.535 76.122 C 73.763 76.396,74.222 78.315,74.556 80.386 C 74.930 82.714,75.463 84.559,75.950 85.218 C 76.383 85.804,76.930 87.324,77.165 88.596 C 77.400 89.867,78.044 91.862,78.596 93.029 C 79.148 94.196,79.600 95.486,79.600 95.897 C 79.600 96.307,80.037 97.533,80.571 98.621 C 81.105 99.710,81.749 101.410,82.003 102.400 C 82.257 103.390,82.801 104.780,83.212 105.488 C 83.623 106.197,84.080 107.418,84.227 108.202 C 84.374 108.986,84.922 110.258,85.445 111.028 C 85.968 111.799,86.602 113.278,86.853 114.315 C 87.105 115.352,87.628 116.560,88.017 117.000 C 88.405 117.440,88.894 118.430,89.104 119.200 C 89.313 119.970,89.960 121.300,90.542 122.156 C 91.124 123.012,91.600 124.033,91.600 124.425 C 91.600 124.818,92.029 125.649,92.554 126.273 C 93.079 126.896,93.803 128.111,94.162 128.971 C 94.522 129.832,95.172 130.785,95.608 131.091 C 96.044 131.396,96.400 131.989,96.400 132.409 C 96.400 132.829,96.916 133.763,97.546 134.486 C 98.176 135.209,98.831 136.250,99.001 136.800 C 99.171 137.350,99.728 138.300,100.239 138.912 C 100.750 139.523,101.283 140.636,101.423 141.384 C 101.564 142.132,101.923 142.838,102.221 142.953 C 102.520 143.067,103.136 143.890,103.590 144.781 C 104.044 145.671,104.577 146.400,104.772 146.400 C 104.968 146.400,105.500 147.165,105.953 148.100 C 106.407 149.035,107.143 150.027,107.589 150.303 C 108.035 150.580,108.400 151.096,108.400 151.451 C 108.400 151.805,108.956 152.748,109.635 153.547 C 110.314 154.346,111.439 155.691,112.135 156.535 C 114.587 159.510,116.206 161.288,118.315 163.319 C 118.987 163.967,119.199 164.566,119.115 165.586 C 118.968 167.364,118.709 167.419,107.800 168.016 C 101.242 168.374,98.698 168.676,96.200 169.395 C 94.440 169.901,91.757 170.448,90.238 170.611 C 88.604 170.786,86.442 171.375,84.947 172.053 C 83.556 172.684,81.829 173.206,81.109 173.214 C 80.389 173.221,79.080 173.575,78.200 174.000 C 77.320 174.425,76.150 174.781,75.600 174.791 C 74.269 174.816,70.478 175.838,69.877 176.334 C 69.615 176.551,68.590 177.031,67.600 177.401 C 66.610 177.770,64.900 178.504,63.800 179.031 C 62.700 179.559,60.947 180.149,59.904 180.343 C 58.861 180.537,57.781 180.875,57.504 181.095 C 57.227 181.315,55.695 181.894,54.100 182.381 C 52.505 182.868,51.200 183.398,51.200 183.559 C 51.200 183.928,48.566 185.200,47.802 185.200 C 47.488 185.200,46.905 185.550,46.507 185.977 C 46.109 186.404,44.887 186.981,43.792 187.259 C 42.696 187.537,41.313 188.094,40.718 188.497 C 40.122 188.900,39.051 189.433,38.336 189.682 C 37.621 189.932,36.437 190.542,35.705 191.039 C 34.972 191.536,33.838 192.060,33.183 192.204 C 32.529 192.347,31.812 192.804,31.590 193.218 C 31.368 193.633,30.425 194.189,29.493 194.454 C 28.562 194.719,27.440 195.248,27.000 195.630 C 26.560 196.011,25.529 196.600,24.709 196.938 C 22.039 198.037,19.518 200.400,21.014 200.400 C 21.645 200.400,23.390 201.398,24.329 202.295 C 24.619 202.573,25.123 202.800,25.448 202.800 C 25.772 202.800,26.435 203.223,26.919 203.741 C 27.404 204.258,28.520 204.914,29.400 205.199 C 30.280 205.483,31.489 206.123,32.086 206.620 C 32.683 207.118,33.882 207.645,34.750 207.792 C 35.619 207.938,36.639 208.402,37.019 208.821 C 37.399 209.241,38.328 209.700,39.084 209.842 C 39.839 209.984,40.939 210.501,41.529 210.992 C 42.118 211.483,43.320 212.116,44.200 212.400 C 45.080 212.684,46.282 213.317,46.871 213.808 C 47.461 214.299,48.615 214.826,49.438 214.981 C 50.260 215.135,51.574 215.697,52.359 216.231 C 53.144 216.764,54.079 217.200,54.437 217.200 C 54.795 217.200,56.058 217.717,57.244 218.348 C 58.430 218.980,60.030 219.629,60.800 219.791 C 61.570 219.954,62.740 220.409,63.400 220.803 C 64.060 221.197,65.680 221.736,67.000 222.000 C 68.320 222.265,70.030 222.812,70.800 223.216 C 71.570 223.620,73.446 224.248,74.969 224.611 C 76.492 224.975,78.112 225.506,78.569 225.791 C 79.026 226.077,81.015 226.623,82.989 227.005 C 84.964 227.386,86.944 227.924,87.389 228.200 C 88.120 228.651,90.065 229.008,96.200 229.816 C 97.300 229.960,98.560 230.273,99.000 230.511 C 99.909 231.001,110.548 231.950,115.471 231.980 C 120.879 232.013,121.394 233.889,117.162 238.134 C 115.880 239.420,114.722 240.816,114.588 241.236 C 114.455 241.656,114.174 242.000,113.963 242.000 C 113.753 242.000,113.413 242.441,113.208 242.979 C 113.003 243.518,112.378 244.258,111.818 244.625 C 111.258 244.992,110.800 245.537,110.800 245.837 C 110.800 246.136,110.357 246.672,109.816 247.027 C 109.274 247.381,108.709 248.060,108.560 248.536 C 108.411 249.011,107.879 249.782,107.378 250.249 C 106.878 250.717,106.089 251.842,105.626 252.749 C 105.163 253.657,104.622 254.400,104.424 254.400 C 104.226 254.400,103.948 254.926,103.807 255.568 C 103.666 256.211,103.113 257.209,102.579 257.785 C 102.044 258.362,101.500 259.259,101.370 259.779 C 101.239 260.299,100.703 261.128,100.178 261.621 C 99.653 262.114,99.016 263.166,98.762 263.959 C 98.509 264.751,97.993 265.760,97.615 266.200 C 97.238 266.640,96.691 267.630,96.400 268.400 C 96.109 269.170,95.576 270.160,95.216 270.600 C 94.564 271.397,93.007 274.510,90.212 280.600 C 89.405 282.360,88.307 284.637,87.772 285.659 C 87.237 286.681,86.800 287.853,86.800 288.262 C 86.800 288.671,86.321 289.905,85.736 291.003 C 85.151 292.101,84.514 293.702,84.320 294.560 C 84.127 295.418,83.623 296.606,83.199 297.201 C 82.776 297.795,82.239 299.134,82.006 300.175 C 81.772 301.217,81.250 302.728,80.845 303.534 C 80.440 304.340,79.880 305.990,79.600 307.200 C 79.320 308.410,78.772 310.036,78.382 310.813 C 77.992 311.590,77.477 313.284,77.238 314.577 C 76.999 315.871,76.363 318.029,75.825 319.374 C 73.575 324.999,74.417 328.178,77.741 326.601 C 79.463 325.784,83.078 324.811,84.415 324.805 C 84.974 324.802,86.144 324.434,87.015 323.987 C 87.887 323.539,89.860 322.889,91.400 322.541 C 92.940 322.194,94.470 321.679,94.800 321.396 C 95.130 321.114,96.526 320.597,97.902 320.249 C 99.279 319.900,100.826 319.339,101.341 319.002 C 101.856 318.664,103.335 318.113,104.627 317.776 C 105.919 317.440,107.257 316.911,107.599 316.601 C 107.941 316.291,108.993 315.915,109.936 315.764 C 110.879 315.613,112.304 315.047,113.101 314.506 C 113.899 313.964,115.462 313.238,116.576 312.892 C 117.689 312.546,118.870 312.037,119.200 311.760 C 119.530 311.484,120.700 310.954,121.800 310.584 C 122.900 310.213,123.929 309.687,124.087 309.414 C 124.244 309.142,125.234 308.594,126.287 308.197 C 127.339 307.800,128.613 307.156,129.119 306.765 C 129.624 306.375,130.614 305.934,131.319 305.785 C 132.023 305.637,133.050 305.106,133.600 304.606 C 134.150 304.106,135.253 303.488,136.052 303.233 C 136.850 302.978,137.814 302.427,138.193 302.008 C 138.573 301.588,139.404 301.131,140.041 300.991 C 140.679 300.851,141.200 300.583,141.200 300.396 C 141.200 300.209,142.055 299.639,143.100 299.128 C 144.145 298.618,145.145 297.974,145.321 297.698 C 145.498 297.421,146.353 296.832,147.221 296.389 C 148.090 295.946,148.800 295.423,148.800 295.228 C 148.800 295.032,149.610 294.479,150.600 294.000 C 151.590 293.521,152.400 292.961,152.400 292.756 C 152.400 292.551,152.895 292.169,153.500 291.907 C 154.105 291.646,155.230 290.912,156.000 290.277 C 157.967 288.654,162.745 284.425,164.189 283.030 C 164.855 282.386,166.251 281.548,167.292 281.167 L 169.183 280.475 169.602 281.938 C 169.832 282.742,170.193 286.550,170.404 290.400 C 170.898 299.413,171.112 301.218,171.985 303.755 C 172.380 304.904,172.835 307.004,172.995 308.422 C 173.156 309.840,173.712 312.260,174.232 313.800 C 174.752 315.340,175.350 317.713,175.562 319.074 C 175.774 320.434,176.209 321.964,176.529 322.474 C 176.848 322.983,177.333 324.390,177.606 325.600 C 177.878 326.810,178.519 328.700,179.029 329.800 C 179.540 330.900,180.150 332.666,180.386 333.725 C 180.622 334.784,181.068 336.044,181.378 336.525 C 181.688 337.006,182.223 338.499,182.567 339.843 C 182.911 341.186,183.626 343.076,184.157 344.043 C 184.687 345.009,185.243 346.383,185.391 347.095 C 185.540 347.808,185.830 348.495,186.037 348.623 C 186.529 348.927,187.600 351.506,187.600 352.388 C 187.600 352.767,187.935 353.464,188.344 353.936 C 188.754 354.408,189.400 355.785,189.782 356.997 C 190.163 358.209,190.616 359.200,190.788 359.200 C 190.960 359.200,191.503 360.145,191.995 361.300 C 192.486 362.455,193.110 363.670,193.382 364.000 C 193.654 364.330,194.189 365.410,194.572 366.400 C 194.954 367.390,195.497 368.470,195.779 368.800 C 196.060 369.130,196.610 370.255,197.000 371.300 C 197.390 372.345,197.860 373.200,198.044 373.200 C 198.229 373.200,198.745 374.001,199.191 374.981 C 199.637 375.960,200.452 377.246,201.001 377.839 C 201.551 378.432,202.000 379.071,202.000 379.258 C 202.000 379.446,202.180 379.600,202.400 379.600 C 202.620 379.600,202.800 379.362,202.800 379.070 C 202.800 378.779,203.430 377.655,204.200 376.572 C 204.970 375.489,205.600 374.377,205.600 374.101 C 205.600 373.826,205.952 373.248,206.382 372.818 C 206.812 372.388,207.555 371.176,208.035 370.124 C 208.514 369.071,209.122 368.028,209.385 367.805 C 209.649 367.582,210.103 366.638,210.394 365.706 C 210.686 364.774,211.256 363.711,211.662 363.344 C 212.068 362.977,212.402 362.389,212.405 362.038 C 212.408 361.687,212.932 360.372,213.569 359.115 C 214.207 357.858,214.934 356.207,215.185 355.447 C 215.436 354.686,215.901 353.848,216.219 353.584 C 216.537 353.320,217.162 351.925,217.607 350.483 C 218.052 349.041,218.593 347.650,218.808 347.390 C 219.180 346.943,219.972 344.963,222.328 338.600 C 222.899 337.060,223.587 335.573,223.859 335.295 C 224.130 335.018,224.477 333.938,224.629 332.895 C 224.781 331.853,225.315 330.184,225.815 329.188 C 226.316 328.191,226.856 326.481,227.015 325.388 C 227.175 324.294,227.715 322.584,228.215 321.588 C 228.716 320.591,229.242 318.881,229.386 317.788 C 229.530 316.694,230.072 314.540,230.591 313.000 C 231.110 311.460,231.736 308.517,231.982 306.460 C 232.228 304.402,232.769 301.702,233.184 300.460 C 233.750 298.762,234.034 296.159,234.325 290.000 C 234.742 281.153,235.133 279.380,236.576 279.768 C 237.029 279.890,237.586 279.992,237.812 279.995 C 238.039 279.998,239.546 281.268,241.162 282.817 C 242.777 284.367,244.752 286.121,245.549 286.715 C 246.347 287.309,247.090 287.910,247.200 288.049 C 247.697 288.680,251.171 291.137,251.887 291.364 C 252.324 291.503,253.160 292.153,253.744 292.808 C 254.328 293.464,255.056 294.000,255.361 294.000 C 255.666 294.000,256.340 294.447,256.858 294.993 C 257.376 295.539,258.008 295.989,258.262 295.993 C 258.516 295.997,259.478 296.630,260.400 297.400 C 261.322 298.170,262.405 298.800,262.807 298.800 C 263.209 298.800,264.047 299.225,264.669 299.745 C 265.291 300.265,266.250 300.826,266.800 300.992 C 267.350 301.157,268.340 301.696,269.000 302.189 C 269.660 302.682,270.650 303.221,271.200 303.387 C 271.750 303.554,272.650 304.096,273.200 304.593 C 273.750 305.090,274.710 305.617,275.332 305.764 C 275.955 305.911,277.125 306.456,277.932 306.974 C 278.740 307.492,280.061 308.124,280.868 308.379 C 281.675 308.633,282.554 309.104,282.820 309.424 C 283.087 309.745,284.316 310.297,285.552 310.651 C 286.789 311.004,288.070 311.526,288.400 311.810 C 288.730 312.095,289.990 312.648,291.200 313.040 C 292.410 313.431,293.940 314.063,294.600 314.444 C 295.260 314.824,296.610 315.347,297.600 315.605 C 298.590 315.863,299.670 316.312,300.000 316.601 C 300.330 316.891,301.652 317.432,302.939 317.804 C 304.225 318.175,306.042 318.817,306.975 319.230 C 307.909 319.643,309.645 320.190,310.833 320.444 C 312.020 320.699,313.354 321.142,313.796 321.430 C 314.238 321.717,315.948 322.257,317.597 322.630 C 319.245 323.003,320.961 323.549,321.410 323.843 C 321.859 324.137,323.499 324.559,325.055 324.779 C 326.611 325.000,328.198 325.301,328.583 325.449 C 329.983 325.986,330.207 323.663,328.993 321.200 C 328.721 320.650,328.195 318.670,327.823 316.800 C 327.451 314.930,326.894 313.010,326.585 312.533 C 326.277 312.056,325.727 310.360,325.365 308.764 C 325.002 307.168,324.371 305.314,323.964 304.644 C 323.556 303.974,323.108 302.610,322.968 301.613 C 322.828 300.616,322.289 299.058,321.770 298.151 C 321.250 297.244,320.707 295.760,320.562 294.854 C 320.417 293.948,319.882 292.721,319.372 292.128 C 318.862 291.535,318.328 290.318,318.186 289.425 C 318.043 288.531,317.507 287.170,316.994 286.400 C 316.481 285.630,315.863 284.243,315.620 283.317 C 315.377 282.391,315.015 281.533,314.815 281.409 C 314.615 281.286,314.072 280.169,313.608 278.928 C 313.143 277.687,312.424 276.195,312.008 275.612 C 311.593 275.028,311.128 274.022,310.975 273.376 C 310.822 272.729,310.286 271.750,309.783 271.200 C 309.281 270.650,308.675 269.464,308.436 268.564 C 308.198 267.663,307.653 266.610,307.224 266.222 C 306.796 265.834,306.333 265.005,306.195 264.379 C 306.058 263.753,305.418 262.577,304.773 261.766 C 304.128 260.954,303.600 260.073,303.600 259.807 C 303.600 259.541,303.252 259.009,302.826 258.623 C 302.400 258.238,301.672 257.175,301.207 256.261 C 299.837 253.566,298.603 251.656,297.466 250.469 C 296.880 249.857,296.400 249.141,296.400 248.878 C 296.400 248.615,296.050 248.050,295.621 247.621 C 295.193 247.193,294.558 246.293,294.211 245.621 C 293.864 244.950,293.416 244.400,293.217 244.400 C 293.017 244.400,292.753 244.085,292.630 243.700 C 292.507 243.315,291.587 242.100,290.585 241.000 C 289.584 239.900,288.221 238.370,287.557 237.600 C 286.041 235.841,285.960 235.756,284.448 234.322 C 281.141 231.186,282.787 229.975,290.904 229.571 C 299.922 229.123,303.190 228.792,304.697 228.175 C 305.410 227.882,307.390 227.440,309.097 227.191 C 310.804 226.942,312.920 226.635,313.800 226.507 C 314.680 226.380,315.760 226.050,316.200 225.773 C 316.640 225.497,318.530 224.978,320.400 224.621 C 322.270 224.263,324.261 223.717,324.825 223.407 C 325.388 223.097,327.166 222.544,328.776 222.178 C 330.385 221.812,332.264 221.185,332.951 220.786 C 333.638 220.386,334.920 219.934,335.800 219.781 C 336.680 219.628,338.210 219.091,339.200 218.588 C 340.190 218.084,341.887 217.465,342.972 217.212 C 344.056 216.959,345.406 216.425,345.972 216.026 C 346.537 215.626,347.630 215.171,348.400 215.013 C 349.170 214.856,350.430 214.329,351.200 213.843 C 351.970 213.356,353.388 212.729,354.350 212.448 C 355.313 212.167,356.453 211.609,356.885 211.207 C 357.316 210.805,358.289 210.360,359.047 210.218 C 359.805 210.075,361.081 209.514,361.883 208.969 C 362.685 208.425,363.803 207.864,364.368 207.722 C 364.932 207.581,366.097 206.955,366.957 206.332 C 367.817 205.710,368.934 205.200,369.440 205.200 C 369.946 205.200,370.504 204.948,370.680 204.640 C 370.856 204.331,372.016 203.566,373.258 202.940 C 378.366 200.361,379.436 199.768,380.171 199.105 C 380.594 198.722,381.269 198.305,381.671 198.178 C 382.595 197.884,382.610 197.249,381.700 196.927 C 381.315 196.790,380.708 196.429,380.351 196.123 C 379.686 195.554,376.887 193.981,373.484 192.263 C 372.430 191.731,371.260 191.027,370.884 190.698 C 370.508 190.370,369.480 189.876,368.600 189.601 C 367.720 189.326,366.640 188.788,366.200 188.404 C 365.760 188.021,364.500 187.375,363.400 186.970 C 362.300 186.565,361.220 186.031,361.000 185.785 C 360.780 185.538,359.790 185.093,358.800 184.797 C 357.810 184.500,356.724 184.027,356.386 183.745 C 356.048 183.462,354.638 182.878,353.252 182.447 C 351.866 182.016,350.433 181.410,350.066 181.100 C 349.700 180.791,348.419 180.231,347.219 179.857 C 346.019 179.483,344.759 178.940,344.419 178.649 C 344.079 178.359,342.900 177.888,341.800 177.603 C 340.700 177.318,339.260 176.764,338.600 176.372 C 337.940 175.981,336.500 175.444,335.400 175.180 C 334.300 174.916,333.008 174.457,332.528 174.159 C 332.049 173.862,330.249 173.329,328.528 172.976 C 326.808 172.622,324.860 172.007,324.200 171.608 C 323.540 171.210,322.010 170.752,320.800 170.592 C 319.590 170.431,317.340 169.890,315.800 169.389 C 314.260 168.888,312.010 168.370,310.800 168.239 C 309.590 168.107,306.710 167.556,304.400 167.013 C 301.300 166.285,298.140 165.919,292.333 165.616 C 282.782 165.117,282.259 164.971,282.637 162.903 C 282.800 162.013,283.420 160.897,284.156 160.166 C 285.630 158.705,288.594 155.316,290.598 152.800 C 291.387 151.810,292.350 150.640,292.739 150.200 C 293.127 149.760,293.875 148.680,294.401 147.800 C 294.927 146.920,295.477 146.110,295.623 146.000 C 295.769 145.890,296.193 145.206,296.565 144.479 C 296.937 143.753,297.491 143.063,297.796 142.946 C 298.102 142.829,298.463 142.222,298.600 141.598 C 298.738 140.974,299.291 139.987,299.831 139.405 C 300.370 138.822,301.088 137.686,301.425 136.878 C 301.762 136.071,302.376 135.048,302.789 134.605 C 303.203 134.162,303.667 133.292,303.821 132.672 C 303.975 132.051,304.438 131.333,304.850 131.076 C 305.262 130.818,305.888 129.738,306.241 128.675 C 306.594 127.613,307.137 126.646,307.447 126.527 C 307.757 126.408,308.206 125.535,308.445 124.589 C 308.683 123.642,309.238 122.481,309.678 122.008 C 310.118 121.536,310.657 120.502,310.876 119.711 C 311.094 118.920,311.702 117.624,312.228 116.830 C 312.753 116.036,313.297 114.817,313.436 114.121 C 313.575 113.425,314.026 112.494,314.437 112.052 C 314.849 111.610,315.379 110.383,315.615 109.324 C 315.852 108.266,316.461 106.680,316.969 105.800 C 317.477 104.920,318.012 103.537,318.159 102.727 C 318.306 101.917,318.852 100.477,319.374 99.527 C 319.895 98.577,320.446 97.170,320.600 96.400 C 320.753 95.630,321.289 94.280,321.792 93.400 C 322.294 92.520,322.838 90.999,323.001 90.019 C 323.164 89.040,323.616 87.495,324.006 86.585 C 324.396 85.676,325.031 83.597,325.418 81.966 C 325.804 80.335,326.352 78.728,326.635 78.397 C 327.513 77.367,328.291 70.827,327.587 70.392 C 326.980 70.017,325.309 70.269,324.569 70.847 C 324.332 71.032,322.172 71.616,319.769 72.145 C 317.366 72.673,314.860 73.395,314.200 73.750 C 313.540 74.104,311.965 74.599,310.700 74.849 C 309.435 75.099,308.400 75.446,308.400 75.620 C 308.400 75.992,305.283 77.019,303.000 77.401 C 302.120 77.547,301.130 77.904,300.800 78.192 C 300.223 78.696,296.764 80.000,296.004 80.000 C 295.801 80.000,294.972 80.450,294.162 81.000 C 293.351 81.550,292.308 82.000,291.844 82.001 C 291.380 82.001,290.010 82.520,288.800 83.154 C 287.590 83.787,285.970 84.437,285.200 84.597 C 284.430 84.758,283.530 85.113,283.200 85.386 C 282.368 86.075,279.985 87.200,279.358 87.200 C 279.073 87.200,278.696 87.435,278.520 87.721 C 278.344 88.008,277.300 88.572,276.200 88.975 C 275.100 89.377,273.840 90.029,273.400 90.424 C 272.960 90.818,271.835 91.378,270.900 91.668 C 269.965 91.958,269.200 92.341,269.200 92.520 C 269.200 92.698,268.213 93.296,267.008 93.848 C 265.802 94.400,264.714 95.015,264.591 95.214 C 264.468 95.414,263.564 95.932,262.583 96.366 C 261.603 96.800,260.800 97.318,260.800 97.517 C 260.800 97.716,260.036 98.221,259.103 98.639 C 258.170 99.058,257.090 99.715,256.703 100.100 C 256.316 100.485,255.797 100.800,255.548 100.800 C 255.300 100.800,254.400 101.430,253.547 102.200 C 252.695 102.970,251.659 103.600,251.245 103.600 C 250.831 103.600,250.197 104.050,249.837 104.600 C 249.476 105.150,248.943 105.600,248.652 105.600 C 248.361 105.600,247.499 106.185,246.736 106.900 C 245.973 107.615,244.641 108.778,243.775 109.485 C 242.909 110.192,241.599 111.310,240.863 111.970 C 240.128 112.630,239.192 113.275,238.784 113.405 C 238.375 113.535,237.942 113.953,237.821 114.334 C 237.558 115.163,235.787 116.266,234.407 116.460 C 232.903 116.672,232.467 114.737,231.975 105.672 C 231.657 99.805,231.305 96.832,230.591 94.000 C 230.064 91.910,229.523 89.390,229.389 88.400 C 229.255 87.410,228.720 85.250,228.200 83.600 C 227.680 81.950,227.130 79.619,226.978 78.419 C 226.827 77.219,226.350 75.562,225.920 74.736 C 225.489 73.910,224.884 72.023,224.574 70.544 C 224.265 69.065,223.847 67.752,223.645 67.627 C 223.444 67.502,222.971 66.320,222.595 65.000 C 222.218 63.680,221.596 62.060,221.213 61.400 C 220.829 60.740,220.283 59.300,220.000 58.200 C 219.717 57.100,219.169 55.660,218.782 55.000 C 218.396 54.340,217.769 52.675,217.387 51.300 C 217.006 49.925,216.563 48.800,216.402 48.800 C 216.051 48.800,214.800 45.636,214.800 44.749 C 214.800 44.405,214.468 43.823,214.062 43.456 C 213.656 43.089,213.084 42.026,212.791 41.094 C 212.498 40.162,212.016 39.111,211.720 38.758 C 211.424 38.405,210.866 37.235,210.480 36.158 C 210.095 35.081,209.472 33.742,209.097 33.182 C 208.722 32.622,208.207 31.542,207.952 30.782 C 207.698 30.022,207.172 29.040,206.785 28.600 C 206.397 28.160,205.747 27.149,205.340 26.354 C 203.521 22.799,202.261 20.601,201.205 19.144 L 200.067 17.572 199.160 19.186 M203.291 73.424 C 208.708 74.827,212.818 82.709,210.000 86.291 C 209.560 86.850,209.200 87.543,209.200 87.830 C 209.200 88.117,208.508 89.151,207.663 90.128 L 206.125 91.904 205.863 96.652 C 205.374 105.520,205.518 161.219,206.032 161.839 C 206.784 162.745,208.272 162.488,209.739 161.200 C 210.491 160.540,211.364 160.000,211.681 160.000 C 211.997 160.000,212.850 159.470,213.576 158.821 C 216.318 156.373,218.473 156.971,219.009 160.329 C 219.139 161.138,219.479 162.340,219.766 163.000 C 220.053 163.660,220.590 165.241,220.959 166.513 C 221.562 168.592,221.692 168.765,222.244 168.213 C 222.581 167.876,223.014 167.600,223.205 167.600 C 223.668 167.600,235.200 156.027,235.200 155.563 C 235.200 155.363,235.373 155.200,235.585 155.200 C 236.141 155.200,248.800 142.616,248.800 142.063 C 248.800 141.809,248.944 141.600,249.121 141.600 C 249.389 141.600,250.816 140.238,256.731 134.330 C 262.556 128.514,270.944 120.034,271.401 119.500 C 271.767 119.073,272.002 117.982,272.004 116.700 C 272.013 112.491,274.230 108.252,277.000 107.147 C 277.660 106.884,278.500 106.413,278.867 106.102 C 281.240 104.087,287.991 106.432,290.893 110.278 L 292.600 112.540 292.598 116.170 L 292.595 119.800 290.846 122.092 C 288.550 125.101,285.269 126.800,281.757 126.800 C 279.243 126.800,278.145 127.304,276.544 129.191 C 276.073 129.746,271.238 134.610,265.800 140.000 C 260.361 145.390,255.446 150.301,254.878 150.913 C 253.951 151.912,243.854 161.932,233.715 171.914 C 231.640 173.957,230.013 175.839,230.099 176.096 C 230.508 177.324,234.299 178.719,238.544 179.204 C 242.034 179.602,242.613 180.123,242.018 182.331 C 241.775 183.235,241.331 184.114,241.031 184.287 C 240.731 184.459,240.195 185.230,239.840 186.000 C 239.485 186.770,238.807 188.004,238.335 188.743 C 237.659 189.800,237.555 190.311,237.849 191.143 C 238.301 192.423,234.200 192.278,272.000 192.351 C 306.126 192.417,307.299 192.367,308.958 190.758 C 310.172 189.581,314.245 187.418,316.064 186.985 C 317.096 186.739,321.403 188.003,322.832 188.972 C 325.634 190.869,327.858 196.071,327.173 199.122 C 326.666 201.377,325.643 203.609,325.003 203.854 C 324.688 203.975,324.330 204.391,324.207 204.778 C 324.084 205.166,323.312 205.824,322.492 206.242 C 321.671 206.659,320.891 207.148,320.758 207.329 C 319.942 208.441,314.905 208.488,313.600 207.397 C 313.270 207.121,312.550 206.764,312.000 206.604 C 311.450 206.444,310.332 205.673,309.516 204.891 C 307.632 203.086,310.731 203.231,270.900 203.086 C 239.419 202.972,237.991 202.998,237.771 203.692 C 237.454 204.690,237.929 206.643,238.630 207.225 C 238.949 207.489,239.561 208.447,239.992 209.353 C 240.422 210.259,241.125 211.450,241.554 212.000 C 243.278 214.210,242.595 216.400,240.180 216.400 C 239.619 216.400,238.631 216.674,237.985 217.008 C 237.338 217.342,235.424 217.932,233.731 218.318 L 230.652 219.020 234.326 222.768 C 236.347 224.830,238.000 226.670,238.000 226.858 C 238.000 227.046,238.198 227.200,238.439 227.200 C 238.681 227.200,239.716 228.118,240.739 229.240 C 241.763 230.362,243.384 232.027,244.343 232.940 C 245.301 233.853,247.281 235.852,248.743 237.382 C 250.945 239.687,252.993 241.720,256.200 244.786 C 257.787 246.303,265.123 253.629,267.954 256.523 C 280.093 268.934,280.898 269.600,283.772 269.602 C 294.177 269.612,298.098 281.834,289.703 288.085 L 287.400 289.800 283.800 289.800 C 277.526 289.800,273.200 285.441,273.200 279.119 L 273.200 276.556 267.577 270.978 C 264.484 267.910,260.119 263.523,257.877 261.228 C 255.634 258.933,249.229 252.543,243.642 247.028 C 238.055 241.513,232.835 236.285,232.042 235.410 C 229.765 232.900,224.250 227.600,223.914 227.600 C 222.813 227.600,221.101 231.949,220.613 235.990 C 220.196 239.441,218.225 240.307,215.473 238.246 C 214.773 237.722,213.795 237.170,213.300 237.019 C 212.805 236.869,212.400 236.581,212.400 236.378 C 212.400 235.614,209.473 234.733,208.559 235.222 C 207.250 235.922,207.206 237.093,207.213 271.000 C 207.220 305.270,207.153 304.274,209.596 306.859 C 212.018 309.422,213.919 314.653,212.853 315.820 C 212.662 316.029,212.183 317.100,211.789 318.200 C 209.469 324.684,200.346 326.809,195.254 322.051 C 190.619 317.720,190.641 311.341,195.307 306.497 C 196.912 304.831,196.809 307.293,196.914 267.951 C 197.009 232.183,197.163 234.221,194.450 235.197 C 193.653 235.485,192.765 236.053,192.477 236.460 C 192.190 236.867,191.732 237.200,191.459 237.200 C 191.186 237.200,189.981 237.825,188.781 238.590 C 186.503 240.041,185.072 240.347,184.524 239.500 C 184.025 238.729,182.429 234.073,181.750 231.403 C 181.414 230.084,181.092 228.959,181.034 228.901 C 180.619 228.486,177.725 230.645,175.305 233.174 C 173.713 234.838,172.273 236.336,172.105 236.503 C 171.937 236.669,167.210 241.399,161.600 247.014 C 148.858 259.766,149.411 259.217,139.779 268.702 C 135.368 273.046,131.639 276.915,131.492 277.300 C 131.345 277.685,131.039 278.000,130.813 278.000 C 130.569 278.000,130.400 279.127,130.400 280.750 C 130.400 288.341,122.672 294.074,116.662 290.943 C 115.968 290.581,114.950 290.054,114.400 289.770 C 113.850 289.487,112.590 288.231,111.600 286.979 L 109.800 284.703 109.801 281.251 C 109.801 275.048,114.578 270.408,120.976 270.395 L 123.400 270.390 130.000 263.793 C 133.630 260.164,137.838 255.981,139.351 254.498 C 140.864 253.014,148.980 244.944,157.386 236.563 L 172.671 221.327 171.235 220.367 C 170.446 219.839,169.710 219.294,169.600 219.155 C 169.490 219.017,167.780 218.682,165.800 218.411 C 160.426 217.676,158.723 215.668,161.300 213.105 C 161.795 212.613,162.509 211.525,162.888 210.689 C 163.266 209.852,163.851 208.892,164.188 208.555 C 165.630 207.112,164.760 204.778,162.766 204.740 C 157.222 204.636,151.136 204.659,124.875 204.887 L 95.151 205.145 93.012 206.972 C 91.835 207.978,90.631 208.801,90.336 208.802 C 90.041 208.804,89.281 209.076,88.647 209.406 C 86.787 210.376,84.660 210.558,83.151 209.875 C 82.408 209.539,81.350 209.141,80.800 208.990 C 78.900 208.471,76.495 205.407,75.582 202.341 L 74.744 199.527 75.573 196.863 C 77.520 190.602,84.097 187.474,89.552 190.213 C 90.661 190.771,91.681 191.408,91.818 191.630 C 91.955 191.851,92.817 192.520,93.734 193.116 L 95.400 194.200 129.922 194.276 L 164.444 194.352 164.774 193.476 C 165.113 192.575,164.310 190.400,163.638 190.400 C 163.451 190.400,163.069 189.815,162.789 189.100 C 162.510 188.385,161.755 186.954,161.112 185.920 C 159.428 183.213,159.664 181.967,162.000 181.240 C 162.990 180.932,164.643 180.347,165.674 179.940 C 166.705 179.533,167.818 179.200,168.148 179.200 C 171.810 179.200,171.187 177.244,165.893 172.113 C 161.874 168.218,156.951 163.291,152.262 158.469 C 150.908 157.077,149.485 155.765,149.100 155.555 C 148.715 155.344,148.400 154.939,148.400 154.654 C 148.400 154.368,147.953 153.896,147.407 153.604 C 146.860 153.311,146.305 152.730,146.172 152.312 C 146.039 151.893,145.516 151.362,145.009 151.132 C 144.503 150.901,143.892 150.282,143.653 149.756 C 143.413 149.230,143.050 148.800,142.845 148.800 C 142.641 148.800,140.522 146.821,138.137 144.403 C 135.752 141.984,133.577 139.779,133.303 139.503 C 133.030 139.226,132.040 138.221,131.103 137.268 C 130.167 136.315,129.051 135.235,128.625 134.868 C 128.198 134.501,127.310 133.615,126.651 132.900 C 125.992 132.185,125.228 131.600,124.953 131.600 C 124.679 131.600,124.340 131.240,124.200 130.800 C 124.060 130.360,123.713 130.000,123.428 130.000 C 123.142 130.000,122.446 129.537,121.880 128.971 C 121.172 128.263,120.500 127.976,119.726 128.051 C 117.583 128.257,112.400 126.779,112.400 125.962 C 112.400 125.788,111.868 125.331,111.217 124.946 C 110.566 124.562,109.824 123.742,109.568 123.124 C 109.312 122.506,108.967 122.000,108.800 122.000 C 108.187 122.000,107.503 119.539,107.702 118.051 C 108.831 109.640,118.174 103.950,123.643 108.343 C 125.472 109.812,128.000 112.458,128.000 112.903 C 128.000 113.107,128.360 113.731,128.800 114.291 C 129.424 115.084,129.600 115.914,129.600 118.065 L 129.600 120.823 133.100 124.473 C 135.025 126.481,139.120 130.610,142.200 133.650 C 145.280 136.689,147.935 139.316,148.100 139.488 C 151.750 143.280,162.966 154.544,165.200 156.660 C 166.850 158.223,170.415 161.786,173.122 164.577 C 178.028 169.636,178.638 170.024,179.405 168.568 C 179.628 168.146,180.142 167.307,180.549 166.703 C 180.990 166.049,181.427 164.357,181.633 162.503 C 182.206 157.360,184.193 155.914,186.725 158.800 C 187.304 159.460,188.067 160.000,188.420 160.000 C 188.774 160.000,189.889 160.547,190.898 161.216 C 193.773 163.120,194.799 162.658,194.805 159.457 C 194.930 92.148,194.955 92.962,192.700 90.400 C 191.875 89.463,191.199 88.404,191.199 88.048 C 191.198 87.692,190.838 86.811,190.399 86.090 C 188.907 83.645,190.359 77.094,192.620 76.064 C 193.121 75.835,193.648 75.278,193.792 74.825 C 193.937 74.368,194.530 73.896,195.127 73.764 C 195.717 73.633,197.010 73.292,198.000 73.005 C 198.990 72.719,200.031 72.552,200.313 72.635 C 200.595 72.717,201.935 73.072,203.291 73.424 " stroke="none" fill="#BB9061"></path></g></svg>
